<svg width="26" height="27" viewBox="0 0 26 27" fill="none" xmlns="http://www.w3.org/2000/svg">
  <path d="M11.185 4.85697C11.6469 2.88101 14.3531 2.88101 14.815 4.85697C15.1134 6.13342 16.5216 6.73917 17.6018 6.05571C19.2739 4.99769 21.1874 6.98479 20.1686 8.72121C19.5104 9.84291 20.0937 11.3053 21.3229 11.6152C23.2257 12.0949 23.2257 14.9051 21.3229 15.3848C20.0937 15.6947 19.5104 17.1571 20.1686 18.2788C21.1874 20.0152 19.2739 22.0023 17.6018 20.9443C16.5216 20.2608 15.1134 20.8666 14.815 22.143C14.3531 24.119 11.6469 24.119 11.185 22.143C10.8866 20.8666 9.47836 20.2608 8.3982 20.9443C6.7261 22.0023 4.81259 20.0152 5.83142 18.2788C6.48957 17.1571 5.90626 15.6947 4.67709 15.3848C2.77431 14.9051 2.7743 12.0949 4.67708 11.6152C5.90626 11.3053 6.48957 9.84291 5.83142 8.72121C4.81259 6.98479 6.7261 4.99769 8.3982 6.05571C9.47836 6.73917 10.8866 6.13342 11.185 4.85697Z" stroke="#787878" stroke-width="2" stroke-linecap="round" stroke-linejoin="round"/>
  <path d="M16.25 13.5C16.25 15.364 14.7949 16.875 13 16.875C11.2051 16.875 9.75 15.364 9.75 13.5C9.75 11.636 11.2051 10.125 13 10.125C14.7949 10.125 16.25 11.636 16.25 13.5Z" stroke="#787878" stroke-width="2" stroke-linecap="round" stroke-linejoin="round"/>
</svg>
